<?xml version="1.0" encoding="UTF-8"?>
<svg version="1.1" xmlns="http://www.w3.org/2000/svg" width="1024" height="1024">
<path d="M0 0 C2.61199173 -0.00470263 5.22386361 -0.01669713 7.83582306 -0.03022003 C28.54082422 -0.11942495 48.51611599 0.8147908 68.98474884 4.10584259 C72.96747044 4.72351525 76.95492258 5.18085151 80.96100616 5.62023163 C86.68166241 6.31832467 92.17400039 7.46213807 97.76569366 8.84288788 C100.90849526 9.56001094 104.01889681 10.05210097 107.21100616 10.49523163 C128.18122311 13.59083508 148.89816654 20.6953702 168.89850616 27.55773163 C170.54409858 28.07932565 172.1898997 28.60026219 173.83600616 29.12023163 C177.33201624 30.27905806 180.47994429 31.81887622 183.73834991 33.52257538 C187.11569395 35.1410133 190.63990962 36.31193754 194.16803741 37.55773163 C198.17341743 39.02465192 202.02169834 40.78488535 205.89850616 42.55773163 C207.48171471 43.24551895 209.06504725 43.93302091 210.64850616 44.62023163 C213.00808595 45.66397002 215.13408266 46.70270178 217.33600616 48.05773163 C219.73869894 49.46418594 221.9882643 50.39002779 224.58600616 51.37023163 C229.26355214 53.17999644 233.3410669 55.53406819 237.58991241 58.17882538 C240.57445222 59.96146929 243.68229454 61.24742319 246.89850616 62.55773163 C249.58440557 63.85552019 252.23959353 65.20495152 254.89850616 66.55773163 C254.89850616 67.21773163 254.89850616 67.87773163 254.89850616 68.55773163 C255.80600616 68.84648163 256.71350616 69.13523163 257.64850616 69.43273163 C260.22053524 70.32304939 262.51197383 71.27267575 264.89850616 72.55773163 C264.89850616 73.21773163 264.89850616 73.87773163 264.89850616 74.55773163 C265.70288116 74.76398163 266.50725616 74.97023163 267.33600616 75.18273163 C271.09016664 76.63170585 273.92831712 78.44893921 277.21881866 80.72570038 C279.76897589 82.46917522 282.35900279 84.13650651 284.96881866 85.7889328 C293.03100387 90.89869169 300.99043571 96.17777325 308.27350616 102.37023163 C310.74916086 104.55656435 310.74916086 104.55656435 313.21100616 105.90538788 C316.2352501 107.76477041 318.81749669 109.88517641 321.52350616 112.18273163 C322.58169635 113.07643885 323.64029946 113.96965736 324.69928741 114.86241913 C325.23118683 115.31197968 325.76308624 115.76154022 326.31110382 116.22472382 C328.75662743 118.27833177 331.23416147 120.2920925 333.71100616 122.30773163 C339.69211722 127.19589146 345.43512624 132.09435171 350.89850616 137.55773163 C351.68225616 138.15585663 352.46600616 138.75398163 353.27350616 139.37023163 C355.56083314 141.27633744 357.29653932 143.1128104 359.21100616 145.37023163 C361.61395833 148.190182 364.06936577 150.66636925 366.89850616 153.05773163 C371.91382886 157.31492414 376.05510385 162.18764294 380.08600616 167.37023163 C381.80980374 169.63671126 381.80980374 169.63671126 384.14850616 171.18273163 C384.72600616 171.63648163 385.30350616 172.09023163 385.89850616 172.55773163 C385.89850616 173.54773163 385.89850616 174.53773163 385.89850616 175.55773163 C386.44249054 175.75753632 386.98647491 175.957341 387.54694366 176.16320038 C390.87306853 178.13566978 393.08393702 180.93165971 395.52350616 183.87023163 C396.25827179 184.72391327 396.25827179 184.72391327 397.00788116 185.594841 C399.72311509 188.82567262 401.33299574 191.6152306 402.89850616 195.55773163 C403.88850616 195.88773163 404.87850616 196.21773163 405.89850616 196.55773163 C406.95129397 198.19156626 407.94290216 199.86521907 408.89850616 201.55773163 C410.25253556 203.4066071 411.62939369 205.23888955 413.02350616 207.05773163 C420.80280092 217.328122 427.8796721 227.96743708 434.63678741 238.92882538 C436.03053367 241.18651751 437.45868959 243.38997355 438.94147491 245.59288788 C442.5397347 251.04414372 445.59486401 256.7893101 448.64850616 262.55773163 C451.71219959 268.34362102 451.71219959 268.34362102 454.84381866 274.09288788 C458.95855194 281.58493581 462.66910292 289.21507066 466.21100616 296.99523163 C466.63172394 297.91892548 467.05244171 298.84261932 467.48590851 299.79430389 C469.82324185 304.98957983 471.95875422 310.20143773 473.89850616 315.55773163 C477.14546099 324.26547412 480.4082437 332.9695578 483.96100616 341.55773163 C486.31757668 347.44446355 488.11943165 353.47668965 489.89850616 359.55773163 C490.25114532 360.74930878 490.25114532 360.74930878 490.61090851 361.96495819 C493.50537479 371.7652935 496.29606405 381.51447003 498.25788116 391.54991913 C498.87620126 394.63707122 498.87620126 394.63707122 499.88288116 397.92101288 C500.9899265 401.88508675 501.72573491 405.81512136 502.39850616 409.87023163 C503.14145617 414.27486379 503.91232887 418.66194264 504.82819366 423.03429413 C516.69964311 482.55548044 515.67408437 550.23424501 502.76837921 609.42980194 C502.05195363 612.75057751 501.45799668 616.07100069 500.96100616 619.43273163 C497.56136569 640.65831304 490.79054214 661.25542906 483.89850616 681.55773163 C483.2106883 683.66179441 482.52317128 685.76595557 481.83600616 687.87023163 C480.05479945 693.19273074 478.05630538 698.37767326 475.89850616 703.55773163 C475.61459015 704.24818573 475.33067413 704.93863983 475.0381546 705.65001678 C471.34291268 714.63249955 467.57917301 723.49793862 463.12897491 732.13585663 C462.14439198 734.0737659 461.25476168 736.0598021 460.39850616 738.05773163 C456.94133124 746.12447313 452.86408593 753.7825292 448.26959991 761.25304413 C447.01587238 763.36044938 445.90448816 765.47711016 444.83600616 767.68273163 C443.2339399 770.97152619 441.41462798 774.02258159 439.44147491 777.10070038 C438.20587326 779.06827871 437.00686632 781.04665053 435.82428741 783.04601288 C431.90300379 789.67495003 427.93761803 796.17054863 423.40631866 802.40929413 C421.80889542 804.61185294 421.80889542 804.61185294 420.32819366 807.33116913 C419.85639679 808.06593475 419.38459991 808.80070038 418.89850616 809.55773163 C418.23850616 809.55773163 417.57850616 809.55773163 416.89850616 809.55773163 C416.63811554 810.29120819 416.37772491 811.02468475 416.10944366 811.78038788 C414.8736455 814.61475076 413.4725227 816.60789915 411.52350616 818.99523163 C409.39819876 821.6375057 407.38933116 824.24852163 405.58600616 827.12023163 C405.02913116 827.92460663 404.47225616 828.72898163 403.89850616 829.55773163 C403.23850616 829.55773163 402.57850616 829.55773163 401.89850616 829.55773163 C401.60073273 830.56320038 401.60073273 830.56320038 401.29694366 831.58898163 C399.36236167 835.69591547 396.54211752 838.70002517 393.52350616 842.05773163 C392.36903767 843.35908562 391.21537379 844.66115391 390.06256866 845.96398163 C389.51632843 846.57628632 388.9700882 847.188591 388.40729523 847.81945038 C387.08578854 849.34196294 385.84047262 850.9299253 384.60944366 852.52648163 C384.04483429 853.19679413 383.48022491 853.86710663 382.89850616 854.55773163 C382.23850616 854.55773163 381.57850616 854.55773163 380.89850616 854.55773163 C380.67163116 855.09398163 380.44475616 855.63023163 380.21100616 856.18273163 C377.71329116 860.7024064 374.46840436 864.17043379 370.52350616 867.43273163 C367.93516845 869.57576393 365.7495033 871.79948797 363.58600616 874.37023163 C359.18996572 879.53209813 353.94772843 885.68214932 347.72272491 888.56554413 C345.75692758 889.40627227 345.75692758 889.40627227 345.01959991 891.35851288 C343.37915665 894.57652527 340.71459692 896.50543849 337.96100616 898.74523163 C337.38487579 899.22137909 336.80874542 899.69752655 336.21515656 900.18810272 C335.0275587 901.16838882 333.8376827 902.14592134 332.64557648 903.12071991 C330.99460712 904.47868604 329.36201727 905.85546552 327.73444366 907.24132538 C326.77795929 908.04698944 325.82147491 908.8526535 324.83600616 909.68273163 C323.9787796 910.40718475 323.12155304 911.13163788 322.23834991 911.87804413 C319.99075075 913.49151265 318.54511386 913.99525348 315.89850616 914.55773163 C315.60975616 915.15585663 315.32100616 915.75398163 315.02350616 916.37023163 C313.70909014 918.92604057 312.16092628 919.86430771 309.75006866 921.34288788 C306.63940248 923.3838524 303.8209534 925.80628969 300.94928741 928.16710663 C298.89850616 929.55773163 298.89850616 929.55773163 295.89850616 929.55773163 C295.89850616 930.21773163 295.89850616 930.87773163 295.89850616 931.55773163 C293.51423728 933.34000227 291.13618331 934.99473464 288.64850616 936.62023163 C287.9665921 937.07978241 287.28467804 937.53933319 286.58209991 938.01280975 C283.3488338 940.1505323 280.73693581 941.77384935 276.89850616 942.55773163 C270.06473919 934.09230681 270.06473919 934.09230681 267.83600616 929.99523163 C266.3351887 927.33249097 264.88995119 925.18539932 263.02350616 922.80773163 C258.80261345 917.31949708 255.09324622 911.1419518 252.89850616 904.55773163 C252.23850616 904.55773163 251.57850616 904.55773163 250.89850616 904.55773163 C249.42541505 902.45754149 248.08540981 900.38005434 246.77350616 898.18273163 C246.21469757 897.27780975 246.21469757 897.27780975 245.64459991 896.35460663 C242.89850616 891.82807847 242.89850616 891.82807847 242.89850616 889.55773163 C242.23850616 889.55773163 241.57850616 889.55773163 240.89850616 889.55773163 C239.30973985 887.23263324 237.84166632 884.90904939 236.39850616 882.49523163 C235.49413428 881.01491592 234.58783716 879.53577493 233.67975616 878.05773163 C233.21698273 877.30363007 232.75420929 876.5495285 232.27741241 875.77257538 C230.21949499 872.46708194 228.07000838 869.22687457 225.89850616 865.99523163 C225.48882599 865.3851828 225.07914581 864.77513397 224.65705109 864.14659882 C223.82580694 862.91023099 222.99401964 861.67422817 222.16168976 860.438591 C220.86554802 858.5086575 219.57805 856.5732159 218.29303741 854.63585663 C214.0668182 848.26593758 209.81404868 841.92839314 205.37116241 835.70616913 C204.3402762 834.20222372 203.3621252 832.66139209 202.42584991 831.09679413 C200.8586938 828.4915474 199.16239058 826.03335888 197.39850616 823.55773163 C195.0754235 820.29726473 192.9574679 816.98933452 190.89850616 813.55773163 C189.74594523 811.88127937 188.57903225 810.21461034 187.39850616 808.55773163 C185.0754235 805.29726473 182.9574679 801.98933452 180.89850616 798.55773163 C179.74594523 796.88127937 178.57903225 795.21461034 177.39850616 793.55773163 C175.07528055 790.2970641 172.93823864 787.00203938 170.89850616 783.55773163 C170.22432648 782.48136444 169.55014679 781.40499725 168.85553741 780.29601288 C168.50426788 779.73462616 168.15299835 779.17323944 167.79108429 778.594841 C167.06245656 777.4314083 166.33060742 776.26998772 165.59577179 775.110466 C162.89850616 770.78183007 162.89850616 770.78183007 162.89850616 768.55773163 C162.23850616 768.55773163 161.57850616 768.55773163 160.89850616 768.55773163 C159.42541505 766.45754149 158.08540981 764.38005434 156.77350616 762.18273163 C156.21469757 761.27780975 156.21469757 761.27780975 155.64459991 760.35460663 C152.89850616 755.82807847 152.89850616 755.82807847 152.89850616 753.55773163 C152.23850616 753.55773163 151.57850616 753.55773163 150.89850616 753.55773163 C149.42541505 751.45754149 148.08540981 749.38005434 146.77350616 747.18273163 C146.21469757 746.27780975 146.21469757 746.27780975 145.64459991 745.35460663 C142.89850616 740.82807847 142.89850616 740.82807847 142.89850616 738.55773163 C142.23850616 738.55773163 141.57850616 738.55773163 140.89850616 738.55773163 C139.42541505 736.45754149 138.08540981 734.38005434 136.77350616 732.18273163 C136.21469757 731.27780975 136.21469757 731.27780975 135.64459991 730.35460663 C132.89850616 725.82807847 132.89850616 725.82807847 132.89850616 723.55773163 C132.23850616 723.55773163 131.57850616 723.55773163 130.89850616 723.55773163 C129.42541505 721.45754149 128.08540981 719.38005434 126.77350616 717.18273163 C126.21469757 716.27780975 126.21469757 716.27780975 125.64459991 715.35460663 C122.89850616 710.82807847 122.89850616 710.82807847 122.89850616 708.55773163 C122.23850616 708.55773163 121.57850616 708.55773163 120.89850616 708.55773163 C119.53131866 706.58116913 119.53131866 706.58116913 118.02350616 703.93273163 C114.21278008 697.37644627 109.96739561 691.2049633 105.58209991 685.02257538 C104.47426087 683.40065788 103.41218875 681.7463561 102.40241241 680.06163788 C100.84434544 677.46755753 99.15413742 675.0217755 97.39850616 672.55773163 C95.0754235 669.29726473 92.9574679 665.98933452 90.89850616 662.55773163 C89.74594523 660.88127937 88.57903225 659.21461034 87.39850616 657.55773163 C85.64202568 655.09249586 83.9516434 652.6463397 82.39459991 650.04991913 C80.86220904 647.49726801 79.19591033 645.10155125 77.46100616 642.68273163 C75.44085701 639.82578428 73.51253899 637.00402705 71.83600616 633.93273163 C69.89560944 630.55268573 67.70604636 627.60753389 65.33600616 624.52648163 C63.65696017 622.22691864 62.32195813 619.83406024 60.96100616 617.33898163 C59.73966684 615.29144217 58.35190845 613.4471546 56.89850616 611.55773163 C54.68597575 608.67373676 52.82419536 605.76472344 51.07038116 602.57335663 C48.61235308 598.34554832 45.79496039 594.33797533 43.06208038 590.28478241 C37.93823237 582.67964165 32.83727146 575.05660247 27.83600616 567.37023163 C27.2881546 566.53105194 26.74030304 565.69187225 26.17584991 564.82726288 C24.9779741 562.69892695 24.34306077 560.9451545 23.89850616 558.55773163 C23.23850616 558.55773163 22.57850616 558.55773163 21.89850616 558.55773163 C20.31256866 556.36241913 20.31256866 556.36241913 18.52350616 553.43273163 C17.89702179 552.42081757 17.27053741 551.4089035 16.62506866 550.36632538 C16.05530304 549.43948944 15.48553741 548.5126535 14.89850616 547.55773163 C11.9011819 542.96807884 8.7531612 538.49313617 5.58209991 534.02257538 C4.47426087 532.40065788 3.41218875 530.7463561 2.40241241 529.06163788 C0.84434544 526.46755753 -0.84586258 524.0217755 -2.60149384 521.55773163 C-4.92511368 518.29651079 -7.04429128 514.99148207 -9.10149384 511.55773163 C-10.68185052 509.12508808 -12.29766348 506.71657742 -13.91399384 504.30773163 C-14.36121796 503.63878876 -14.80844208 502.96984589 -15.26921844 502.28063202 C-17.10076748 499.54143615 -18.93567279 496.80452604 -20.77336884 494.06945038 C-23.34984045 490.2264548 -25.87565985 486.35587287 -28.36614227 482.45641327 C-31.9602934 476.82951681 -35.61843192 471.27718636 -39.49602509 465.83898163 C-42.55407065 461.49372954 -45.44275962 457.04345279 -48.29656219 452.56212616 C-51.287214 447.86673095 -54.29943548 443.21197198 -57.53899384 438.68273163 C-60.64847752 434.29587789 -63.54966897 429.79424192 -66.41399384 425.24523163 C-66.84703827 424.56283417 -67.2800827 423.88043671 -67.72624969 423.17736053 C-69.88252391 419.72511154 -71.74867641 416.42185655 -73.10149384 412.55773163 C-73.76149384 412.55773163 -74.42149384 412.55773163 -75.10149384 412.55773163 C-76.57458495 410.45754149 -77.91459019 408.38005434 -79.22649384 406.18273163 C-79.5990329 405.57945038 -79.97157196 404.97616913 -80.35540009 404.35460663 C-83.10149384 399.82807847 -83.10149384 399.82807847 -83.10149384 397.55773163 C-83.76149384 397.55773163 -84.42149384 397.55773163 -85.10149384 397.55773163 C-86.57458495 395.45754149 -87.91459019 393.38005434 -89.22649384 391.18273163 C-89.5990329 390.57945038 -89.97157196 389.97616913 -90.35540009 389.35460663 C-93.10149384 384.82807847 -93.10149384 384.82807847 -93.10149384 382.55773163 C-93.76149384 382.55773163 -94.42149384 382.55773163 -95.10149384 382.55773163 C-96.75042838 380.12804014 -98.28422855 377.69982924 -99.78899384 375.18273163 C-103.22981508 369.54068224 -106.75474474 364.030016 -110.62883759 358.67101288 C-111.66503334 357.18405823 -112.64241321 355.65524281 -113.57415009 354.10070038 C-115.14030046 351.49312009 -116.83675954 349.03455169 -118.60149384 346.55773163 C-120.9245765 343.29726473 -123.0425321 339.98933452 -125.10149384 336.55773163 C-126.25405477 334.88127937 -127.42096775 333.21461034 -128.60149384 331.55773163 C-130.9245765 328.29726473 -133.0425321 324.98933452 -135.10149384 321.55773163 C-136.25405477 319.88127937 -137.42096775 318.21461034 -138.60149384 316.55773163 C-140.39114456 314.04594114 -142.09708314 311.56523755 -143.66008759 308.90538788 C-145.09285513 306.36767882 -145.09285513 306.36767882 -147.66399384 303.99523163 C-150.10149384 301.55773163 -150.10149384 301.55773163 -151.10149384 299.30773163 C-151.43149384 298.73023163 -151.76149384 298.15273163 -152.10149384 297.55773163 C-154.46344794 296.95170498 -154.46344794 296.95170498 -157.10149384 296.55773163 C-158.18430634 295.84616913 -158.18430634 295.84616913 -159.28899384 295.12023163 C-168.92335899 289.76780654 -182.63047687 290.20092748 -193.03899384 292.74523163 C-200.61821835 295.15885372 -206.27069158 298.35582339 -210.10149384 305.55773163 C-211.41425186 309.35575245 -211.24139401 313.23217016 -211.23012829 317.20153618 C-211.23275784 318.36820816 -211.23275784 318.36820816 -211.23544052 319.55844927 C-211.24011452 322.18024709 -211.23763142 324.80198979 -211.2352066 327.42378998 C-211.23707387 329.31624987 -211.23937423 331.20870938 -211.24207193 333.10116827 C-211.24820674 338.31387396 -211.24805436 343.52656364 -211.24687755 348.73927212 C-211.24667397 354.35627682 -211.25218822 359.97327633 -211.25693512 365.59027863 C-211.26525135 376.59944434 -211.2679904 387.60860469 -211.2685475 398.61777328 C-211.26902218 407.5635665 -211.27107453 416.50935795 -211.27424812 425.4551506 C-211.28162308 446.67473036 -211.28777266 467.89430862 -211.28724957 489.11388969 C-211.28723399 489.79270718 -211.28721841 490.47152466 -211.28720236 491.17091237 C-211.28711925 494.61155741 -211.28702021 498.05220245 -211.28691765 501.49284749 C-211.2868977 502.17619025 -211.28687776 502.85953301 -211.28685721 503.56358313 C-211.28681677 504.94546894 -211.28677497 506.32735475 -211.28673182 507.70924056 C-211.28611897 529.21245528 -211.29362692 550.71565423 -211.30730438 572.21886444 C-211.32265918 596.36916401 -211.3312583 620.51944991 -211.33034116 644.66975558 C-211.33000873 657.46007225 -211.33277607 670.25037114 -211.34351921 683.04068375 C-211.35260627 693.92936717 -211.35481427 704.81802476 -211.34800979 715.70671032 C-211.34473554 721.26483087 -211.34472042 726.8229018 -211.35336304 732.38101768 C-211.36118907 737.4661647 -211.35983672 742.55122242 -211.35107891 747.63636716 C-211.34953529 749.47887283 -211.35139226 751.32138504 -211.35693898 753.16388302 C-211.36396712 755.66344593 -211.35873062 758.16269283 -211.3503828 760.6622448 C-211.35535098 761.38173388 -211.36031916 762.10122297 -211.3654379 762.84251475 C-211.3082094 770.91815129 -208.65060753 776.81930915 -203.10149384 782.55773163 C-192.47630226 790.35477609 -179.60126559 790.95337711 -166.93743134 789.09288788 C-160.53430218 787.56876277 -155.16172928 784.78243982 -150.10149384 780.55773163 C-149.77149384 779.89773163 -149.44149384 779.23773163 -149.10149384 778.55773163 C-148.44149384 778.55773163 -147.78149384 778.55773163 -147.10149384 778.55773163 C-146.96820641 777.97771532 -146.83491899 777.39769902 -146.69759256 776.80010647 C-146.13042309 774.66655627 -145.37753433 772.72897802 -144.5639143 770.67973423 C-142.46598247 764.40295573 -142.67817553 758.16391386 -142.70276642 751.60569 C-142.69732035 750.1996097 -142.69056605 748.79353396 -142.68262452 747.38746554 C-142.6646617 743.54261229 -142.66514855 739.6979528 -142.66875398 735.85306752 C-142.66937932 731.69978116 -142.65274385 727.54655899 -142.638237 723.39330292 C-142.61547212 716.20377816 -142.60356953 709.01430179 -142.59910774 701.82474327 C-142.59264101 691.4299449 -142.56969439 681.03523392 -142.54276445 670.64047081 C-142.49951505 653.7744431 -142.46953774 636.90841907 -142.44792938 620.04235077 C-142.42691416 603.66147298 -142.39963431 587.28062532 -142.36394501 570.89977264 C-142.36174618 569.88954565 -142.35954736 568.87931867 -142.3572819 567.83847874 C-142.34621211 562.77031406 -142.33501933 557.70214967 -142.3237654 552.6339854 C-142.23060645 510.60859393 -142.15899635 468.58318604 -142.10149384 426.55773163 C-140.60149384 427.93273163 -140.60149384 427.93273163 -139.10149384 429.55773163 C-139.10149384 430.21773163 -139.10149384 430.87773163 -139.10149384 431.55773163 C-138.44149384 431.55773163 -137.78149384 431.55773163 -137.10149384 431.55773163 C-135.61745377 433.65533612 -134.25418162 435.74553395 -132.91399384 437.93273163 C-132.10438198 439.22409194 -131.29317125 440.51445117 -130.48040009 441.80382538 C-129.87736053 442.76264618 -129.87736053 442.76264618 -129.26213837 443.7408371 C-126.24354872 448.46619345 -122.94407426 453.00415549 -119.66399384 457.54991913 C-117.9488695 459.92863324 -116.26209926 462.28881092 -114.75774384 464.80773163 C-112.7210736 468.18937277 -110.54606348 471.46463351 -108.35149384 474.74523163 C-107.69213837 475.73390228 -107.69213837 475.73390228 -107.01946259 476.74254608 C-103.91350691 481.38506693 -100.73589531 485.97042765 -97.47649384 490.50695038 C-96.16328449 492.46557227 -95.15403754 494.45264423 -94.10149384 496.55773163 C-93.29711884 497.33116913 -93.29711884 497.33116913 -92.47649384 498.12023163 C-91.10149384 499.55773163 -91.10149384 499.55773163 -91.10149384 502.55773163 C-90.44149384 502.55773163 -89.78149384 502.55773163 -89.10149384 502.55773163 C-87.81243134 504.23741913 -87.81243134 504.23741913 -86.47649384 506.43273163 C-86.03047821 507.1520285 -85.58446259 507.87132538 -85.12493134 508.61241913 C-84.10149384 510.55773163 -84.10149384 510.55773163 -84.10149384 512.55773163 C-83.44149384 512.55773163 -82.78149384 512.55773163 -82.10149384 512.55773163 C-81.77149384 514.20773163 -81.44149384 515.85773163 -81.10149384 517.55773163 C-80.11149384 517.88773163 -79.12149384 518.21773163 -78.10149384 518.55773163 C-76.74211884 520.23741913 -76.74211884 520.23741913 -75.35149384 522.43273163 C-74.83329071 523.23968475 -74.31508759 524.04663788 -73.78118134 524.87804413 C-73.22688446 525.762341 -72.67258759 526.64663788 -72.10149384 527.55773163 C-70.89454258 529.47526891 -69.68619989 531.39193106 -68.47649384 533.30773163 C-67.92735321 534.18945038 -67.37821259 535.07116913 -66.81243134 535.97960663 C-65.12718669 538.60421881 -65.12718669 538.60421881 -63.07805634 541.07335663 C-61.16237647 543.48120721 -59.65762921 545.90787838 -58.10149384 548.55773163 C-55.99989934 551.68802247 -53.87534185 554.80171228 -51.74602509 557.91320038 C-50.10149384 560.55773163 -50.10149384 560.55773163 -50.10149384 562.55773163 C-49.44149384 562.55773163 -48.78149384 562.55773163 -48.10149384 562.55773163 C-46.81243134 564.23741913 -46.81243134 564.23741913 -45.47649384 566.43273163 C-45.03047821 567.1520285 -44.58446259 567.87132538 -44.12493134 568.61241913 C-43.10149384 570.55773163 -43.10149384 570.55773163 -43.10149384 572.55773163 C-42.44149384 572.55773163 -41.78149384 572.55773163 -41.10149384 572.55773163 C-40.77149384 574.20773163 -40.44149384 575.85773163 -40.10149384 577.55773163 C-39.44149384 577.55773163 -38.78149384 577.55773163 -38.10149384 577.55773163 C-36.48040009 579.56945038 -36.48040009 579.56945038 -34.66399384 582.24523163 C-34.0671579 583.11534882 -33.47032196 583.985466 -32.85540009 584.88195038 C-31.76357534 586.54765183 -30.69834371 588.23148937 -29.67571259 589.94054413 C-27.66808186 593.27829248 -25.51703668 596.50843184 -23.35149384 599.74523163 C-22.91047333 600.40579559 -22.46945282 601.06635956 -22.01506805 601.74694061 C-18.04129635 607.68159747 -13.96078006 613.53903972 -9.82024384 619.35851288 C-7.96083105 622.03473914 -6.60164891 624.30672367 -6.10149384 627.55773163 C-5.44149384 627.55773163 -4.78149384 627.55773163 -4.10149384 627.55773163 C-2.81243134 629.23741913 -2.81243134 629.23741913 -1.47649384 631.43273163 C-1.03047821 632.1520285 -0.58446259 632.87132538 -0.12493134 633.61241913 C0.89850616 635.55773163 0.89850616 635.55773163 0.89850616 637.55773163 C1.55850616 637.55773163 2.21850616 637.55773163 2.89850616 637.55773163 C4.38254614 639.655336 5.74589654 641.74548428 7.08600616 643.93273163 C7.89427057 645.22281769 8.70418011 646.51187443 9.51569366 647.79991913 C9.9175589 648.43897186 10.31942413 649.0780246 10.7334671 649.73644257 C12.81501949 652.99050393 15.0509697 656.13205085 17.29303741 659.27648163 C19.21276988 662.00427666 21.0561517 664.77707768 22.89850616 667.55773163 C31.91472115 681.26299027 31.91472115 681.26299027 41.43756866 694.61632538 C44.89850616 699.26635593 44.89850616 699.26635593 44.89850616 702.55773163 C45.55850616 702.55773163 46.21850616 702.55773163 46.89850616 702.55773163 C48.37897491 704.61241913 48.37897491 704.61241913 50.08600616 707.43273163 C53.50185112 712.95607513 57.14007398 718.26404701 60.89850616 723.55773163 C62.06639723 725.22354054 63.23306196 726.8902099 64.39850616 728.55773163 C66.19014815 731.12010248 67.98489127 733.67999154 69.78913116 736.23351288 C70.40272491 737.10363007 71.01631866 737.97374725 71.64850616 738.87023163 C72.20022491 739.65011444 72.75194366 740.42999725 73.32038116 741.23351288 C74.94430393 743.6251813 76.41125743 746.07898375 77.89850616 748.55773163 C79.45750737 750.9698729 81.05174039 753.35796972 82.64850616 755.74523163 C83.08807648 756.4050705 83.52764679 757.06490936 83.98053741 757.74474335 C87.07023965 762.36691086 90.24561137 766.9179479 93.52350616 771.40929413 C94.99646082 773.71078578 95.96358058 775.99567593 96.89850616 778.55773163 C97.55850616 778.55773163 98.21850616 778.55773163 98.89850616 778.55773163 C99.22850616 780.20773163 99.55850616 781.85773163 99.89850616 783.55773163 C100.55850616 783.55773163 101.21850616 783.55773163 101.89850616 783.55773163 C103.18756866 785.23741913 103.18756866 785.23741913 104.52350616 787.43273163 C104.96952179 788.1520285 105.41553741 788.87132538 105.87506866 789.61241913 C106.89850616 791.55773163 106.89850616 791.55773163 106.89850616 793.55773163 C107.55850616 793.55773163 108.21850616 793.55773163 108.89850616 793.55773163 C110.38254623 795.65533612 111.74581838 797.74553395 113.08600616 799.93273163 C113.89561802 801.22409194 114.70682875 802.51445117 115.51959991 803.80382538 C115.92162628 804.44303925 116.32365265 805.08225311 116.73786163 805.7408371 C119.75645128 810.46619345 123.05592574 815.00415549 126.33600616 819.54991913 C128.06561952 821.94872813 129.76210658 824.32898218 131.27741241 826.87023163 C133.76708292 830.99768537 136.5323524 834.93619883 139.25397491 838.91320038 C140.89850616 841.55773163 140.89850616 841.55773163 140.89850616 843.55773163 C141.55850616 843.55773163 142.21850616 843.55773163 142.89850616 843.55773163 C144.18756866 845.23741913 144.18756866 845.23741913 145.52350616 847.43273163 C145.96952179 848.1520285 146.41553741 848.87132538 146.87506866 849.61241913 C147.89850616 851.55773163 147.89850616 851.55773163 147.89850616 853.55773163 C148.55850616 853.55773163 149.21850616 853.55773163 149.89850616 853.55773163 C150.22850616 855.20773163 150.55850616 856.85773163 150.89850616 858.55773163 C151.88850616 858.88773163 152.87850616 859.21773163 153.89850616 859.55773163 C155.39850616 861.44835663 155.39850616 861.44835663 156.89850616 863.80773163 C157.39350616 864.57601288 157.88850616 865.34429413 158.39850616 866.13585663 C159.37736946 867.716313 160.34168187 869.30590186 161.28913116 870.90538788 C163.31769912 874.24858603 165.47429637 877.49547749 167.64850616 880.74523163 C168.31003693 881.73607758 168.31003693 881.73607758 168.98493195 882.74694061 C172.95870365 888.68159747 177.03921994 894.53903972 181.17975616 900.35851288 C183.03916895 903.03473914 184.39835109 905.30672367 184.89850616 908.55773163 C185.55850616 908.55773163 186.21850616 908.55773163 186.89850616 908.55773163 C188.18756866 910.23741913 188.18756866 910.23741913 189.52350616 912.43273163 C189.96952179 913.1520285 190.41553741 913.87132538 190.87506866 914.61241913 C191.89850616 916.55773163 191.89850616 916.55773163 191.89850616 918.55773163 C192.55850616 918.55773163 193.21850616 918.55773163 193.89850616 918.55773163 C194.22850616 920.20773163 194.55850616 921.85773163 194.89850616 923.55773163 C195.88850616 923.88773163 196.87850616 924.21773163 197.89850616 924.55773163 C199.25788116 926.23741913 199.25788116 926.23741913 200.64850616 928.43273163 C201.16670929 929.23968475 201.68491241 930.04663788 202.21881866 930.87804413 C203.05026398 932.20448944 203.05026398 932.20448944 203.89850616 933.55773163 C205.10545742 935.47526891 206.31380011 937.39193106 207.52350616 939.30773163 C208.07264679 940.18945038 208.62178741 941.07116913 209.18756866 941.97960663 C210.87281331 944.60421881 210.87281331 944.60421881 212.92194366 947.07335663 C214.84046944 949.48478429 216.33418156 951.90653136 217.89850616 954.55773163 C218.71783786 955.79579484 219.54537987 957.0284455 220.37897491 958.25695038 C221.04123077 959.23438202 221.04123077 959.23438202 221.71686554 960.23155975 C222.63878127 961.5874729 223.56331407 962.94160992 224.49030304 964.29405975 C227.89850616 969.33860193 227.89850616 969.33860193 227.89850616 971.55773163 C216.65018873 977.24540029 205.42404714 982.85546239 193.67975616 987.46398163 C190.96680922 988.53087088 188.26558748 989.6248798 185.56427765 990.72081757 C175.3819363 994.83683474 165.12462906 998.62866742 154.59113312 1001.75231171 C151.84816059 1002.57279102 149.11511543 1003.42096739 146.38288116 1004.27648163 C136.92760725 1007.22147341 127.57527996 1010.10130396 117.83600616 1011.95226288 C114.80825038 1012.5348716 114.80825038 1012.5348716 111.54694366 1013.53820038 C107.55854263 1014.65273215 103.60426323 1015.38499813 99.52350616 1016.05773163 C95.17531528 1016.78243011 90.86630152 1017.54750703 86.57428741 1018.55773163 C81.24802028 1019.76584569 75.88013786 1020.4143644 70.46100616 1021.05773163 C69.03111359 1021.23368866 69.03111359 1021.23368866 67.57233429 1021.41320038 C65.57405187 1021.6566061 63.57502928 1021.89400615 61.57534027 1022.1255722 C59.0312445 1022.42459439 56.48868245 1022.73685279 53.94750214 1023.05971527 C43.16574421 1024.39330824 32.55260704 1024.88364805 21.69538116 1024.89366913 C19.99935558 1024.90013362 18.30333099 1024.9068643 16.60730743 1024.91384125 C13.07446472 1024.92570151 9.54171888 1024.92953429 6.00885773 1024.9283371 C2.45656524 1024.92817545 -1.09520655 1024.94193983 -4.64739227 1024.96935272 C-25.87313121 1025.13079558 -46.31133386 1024.42341395 -67.29428864 1020.99716949 C-70.91061548 1020.43107231 -74.52156488 1020.04021208 -78.16399384 1019.68273163 C-112.22425168 1015.485557 -146.34078287 1005.41859927 -178.46868134 993.52648163 C-180.32245065 992.84438253 -182.1825016 992.17923554 -184.04680634 991.52648163 C-185.01360321 991.18616913 -185.98040009 990.84585663 -186.97649384 990.49523163 C-187.84016571 990.19488007 -188.70383759 989.8945285 -189.59368134 989.58507538 C-192.28486986 988.4826103 -194.6115975 987.05326041 -197.10149384 985.55773163 C-199.21982936 984.72846945 -199.21982936 984.72846945 -201.35149384 984.12023163 C-208.10926097 981.96850478 -214.43658132 978.95611846 -220.74993134 975.74913788 C-223.1904982 974.51263806 -225.64223946 973.29957085 -228.09416962 972.0858078 C-234.85214019 968.73220797 -241.50641463 965.22166452 -248.10149384 961.55773163 C-248.81176727 961.17230194 -249.52204071 960.78687225 -250.25383759 960.38976288 C-267.63837249 950.90434626 -286.28355191 940.65145689 -301.41399384 927.80773163 C-303.94047907 925.57012659 -303.94047907 925.57012659 -306.39836884 924.19445038 C-315.92268796 918.42755773 -324.36355854 910.71203461 -332.75383759 903.43663788 C-335.71668827 900.87300658 -338.73912933 898.39257967 -341.78899384 895.93273163 C-345.70262928 892.74707897 -349.52960088 889.48527416 -353.28899384 886.12023163 C-354.67151337 884.88466522 -354.67151337 884.88466522 -356.08196259 883.62413788 C-358.10149384 881.55773163 -358.10149384 881.55773163 -358.10149384 879.55773163 C-358.74086884 879.28960663 -359.38024384 879.02148163 -360.03899384 878.74523163 C-362.10149384 877.55773163 -362.10149384 877.55773163 -363.10149384 874.55773163 C-363.76149384 874.22773163 -364.42149384 873.89773163 -365.10149384 873.55773163 C-367.10149384 872.55773163 -367.10149384 872.55773163 -368.10149384 869.55773163 C-368.76149384 869.22773163 -369.42149384 868.89773163 -370.10149384 868.55773163 C-372.10149384 867.55773163 -372.10149384 867.55773163 -373.10149384 864.55773163 C-374.43021389 863.88191712 -375.76436202 863.2167466 -377.10149384 862.55773163 C-379.03899384 860.66710663 -379.03899384 860.66710663 -381.10149384 858.30773163 C-382.27711884 856.96775116 -382.27711884 856.96775116 -383.47649384 855.60070038 C-384.352079 854.58688254 -385.22704801 853.57253234 -386.10149384 852.55773163 C-386.5771579 852.00939667 -387.05282196 851.46106171 -387.54290009 850.89611053 C-415.10149384 819.11918112 -415.10149384 819.11918112 -415.10149384 814.55773163 C-415.76149384 814.55773163 -416.42149384 814.55773163 -417.10149384 814.55773163 C-418.51479867 812.58455228 -419.81495231 810.61126062 -421.10149384 808.55773163 C-421.87537499 807.38356712 -422.65280695 806.21173627 -423.43352509 805.04210663 C-423.83619598 804.43560272 -424.23886688 803.82909882 -424.65373993 803.204216 C-428.03732873 798.11244579 -431.4364313 793.04287368 -434.97649384 788.05773163 C-437.19647816 784.91146014 -439.23273091 781.75778181 -441.08196259 778.38195038 C-442.31759059 776.17107574 -443.64930352 774.02734457 -444.97649384 771.87023163 C-447.84345546 767.12816126 -450.28528622 762.23203306 -452.71868134 757.25695038 C-453.82922263 755.08919887 -454.96660545 753.11549675 -456.35149384 751.12023163 C-458.0490367 748.63454387 -459.02653958 746.35261269 -460.10149384 743.55773163 C-460.57586884 742.77398163 -461.05024384 741.99023163 -461.53899384 741.18273163 C-463.37849703 738.09236626 -464.72312588 734.86845275 -466.10149384 731.55773163 C-466.76217446 730.01349017 -467.42906852 728.47189528 -468.10149384 726.93273163 C-468.56555634 725.86152069 -468.56555634 725.86152069 -469.03899384 724.76866913 C-470.07436953 722.50025457 -470.07436953 722.50025457 -471.54290009 720.30382538 C-473.92082685 716.11414489 -475.25210131 711.61863523 -476.76360321 707.05968475 C-478.00038984 703.42111723 -479.32832777 699.98859951 -481.10540009 696.57726288 C-483.27954754 692.3746343 -484.68153345 688.06015838 -486.10149384 683.55773163 C-486.67051991 681.87281895 -487.24356239 680.1892583 -487.82024384 678.50695038 C-490.960347 669.25708126 -493.92079249 660.08727046 -496.10149384 650.55773163 C-496.75719047 647.86747792 -497.42917815 645.18137313 -498.10149384 642.49523163 C-498.27245575 641.80574432 -498.44341766 641.11625702 -498.61956024 640.40587616 C-499.56296077 636.62051546 -500.57659055 632.8663644 -501.66399384 629.12023163 C-503.17251683 623.70102674 -504.11100504 618.21379848 -505.04485321 612.672966 C-505.64374252 609.12082361 -506.28219147 605.6129957 -507.16399384 602.12023163 C-508.28521929 597.26771492 -508.76563164 592.33560716 -509.26371002 587.38806915 C-509.70555003 583.01354114 -510.21437157 578.66243027 -510.84832001 574.31139374 C-513.45649855 555.67849362 -513.56529394 537.19457349 -513.49260712 518.41759491 C-513.47551628 513.95373179 -513.48567265 509.49040556 -513.50294113 505.02656078 C-513.5643461 486.26981041 -513.22927353 467.89246103 -510.49756622 449.29636383 C-509.92796773 445.35788991 -509.44002491 441.4099725 -508.94727325 437.46126556 C-507.95538675 429.6701789 -506.70132708 422.0579748 -504.78508759 414.43273163 C-504.07434077 411.44353358 -503.57006281 408.46874876 -503.10149384 405.43273163 C-502.33402426 400.57209101 -501.17826488 395.93989486 -499.82024384 391.21398163 C-499.1210845 388.63013192 -498.58874592 386.06389287 -498.10149384 383.43273163 C-497.34770507 379.46277749 -496.26292885 375.75167793 -494.88274384 371.95616913 C-493.99799825 369.24000019 -493.34390618 366.48560626 -492.66399384 363.71251678 C-491.72273682 360.10681608 -490.54294042 356.58726552 -489.35149384 353.05773163 C-489.08836395 352.27438446 -488.82523407 351.49103729 -488.55413055 350.68395233 C-486.17591536 343.66616367 -483.61171701 336.72873661 -480.95940399 329.81066132 C-479.97795819 327.23331873 -479.01408979 324.64969324 -478.05071259 322.06554413 C-477.33863407 320.16704621 -476.62639588 318.26860817 -475.91399384 316.37023163 C-475.58093231 315.4726413 -475.24787079 314.57505096 -474.90471649 313.65026093 C-473.28047274 309.34711742 -471.61039973 305.43778376 -469.10149384 301.55773163 C-468.4085325 299.94082185 -467.71748769 298.32301788 -467.04290009 296.69835663 C-465.38279575 292.92351358 -463.48896025 289.26438891 -461.62883759 285.58507538 C-460.71343025 283.77064908 -459.80675535 281.95171817 -458.91790009 280.12413788 C-452.09899261 266.1324004 -444.18320359 252.52200935 -435.46477509 239.63585663 C-433.93385306 237.30218753 -432.58824949 234.88176165 -431.23040009 232.44445038 C-427.66418311 226.48430228 -423.43343227 220.97265467 -419.10149384 215.55773163 C-418.66192352 214.81007538 -418.22235321 214.06241913 -417.76946259 213.29210663 C-412.35928667 204.42296578 -405.28209217 196.47263588 -398.48552704 188.64318085 C-395.52752951 185.23494028 -392.65892621 181.77992268 -389.85149384 178.24523163 C-376.84507172 162.25719289 -361.8699947 146.84234475 -346.10149384 133.55773163 C-344.95807145 132.56465904 -343.81631818 131.56966321 -342.67571259 130.57335663 C-332.24401528 121.46511345 -321.68441605 112.62602408 -310.53508759 104.40538788 C-308.08613674 102.63277271 -308.08613674 102.63277271 -306.10149384 100.55773163 C-305.11149384 100.55773163 -304.12149384 100.55773163 -303.10149384 100.55773163 C-303.10149384 99.89773163 -303.10149384 99.23773163 -303.10149384 98.55773163 C-301.12493134 96.97179413 -301.12493134 96.97179413 -298.47649384 95.18273163 C-297.55868134 94.55882538 -296.64086884 93.93491913 -295.69524384 93.29210663 C-294.83930634 92.71976288 -293.98336884 92.14741913 -293.10149384 91.55773163 C-292.07024384 90.85648163 -291.03899384 90.15523163 -289.97649384 89.43273163 C-289.02774384 88.81398163 -288.07899384 88.19523163 -287.10149384 87.55773163 C-286.07668915 86.88870819 -286.07668915 86.88870819 -285.03118134 86.20616913 C-283.95223602 85.51394257 -283.95223602 85.51394257 -282.85149384 84.80773163 C-282.18633759 84.37976288 -281.52118134 83.95179413 -280.83586884 83.51085663 C-279.10149384 82.55773163 -279.10149384 82.55773163 -277.10149384 82.55773163 C-277.10149384 81.89773163 -277.10149384 81.23773163 -277.10149384 80.55773163 C-276.33836884 80.20710663 -275.57524384 79.85648163 -274.78899384 79.49523163 C-271.69842078 77.96080192 -268.86284728 76.13326601 -265.97649384 74.24523163 C-261.12032957 71.10495624 -256.14956025 68.48771668 -250.92571259 66.01476288 C-248.02632413 64.58723635 -248.02632413 64.58723635 -245.21477509 62.62023163 C-241.78802193 60.35006141 -238.29003451 58.54209722 -234.60149384 56.74523163 C-233.18211671 56.04622867 -231.76284794 55.34700566 -230.34368134 54.64757538 C-229.63437469 54.29936737 -228.92506805 53.95115936 -228.19426727 53.5923996 C-226.22104367 52.61683711 -224.25731017 51.62497251 -222.29680634 50.62413788 C-216.4587615 47.64873018 -210.6354725 44.85476006 -204.51165009 42.51476288 C-201.90594872 41.48008405 -199.38850147 40.31303143 -196.85149384 39.12023163 C-191.61749662 36.71244609 -186.28251573 34.77033006 -180.84368134 32.87804413 C-177.56810266 31.72235979 -174.32257739 30.51361097 -171.07854462 29.27379608 C-155.3383699 23.26524722 -139.14135183 19.0196208 -122.80144501 14.98961639 C-119.04589793 14.05979822 -115.31961492 13.06391314 -111.60149384 11.99523163 C-105.21235475 10.22207689 -98.70554547 9.11001238 -92.18450165 7.94542694 C-89.99733473 7.53834524 -87.82236779 7.08587167 -85.64446259 6.63195038 C-57.23827591 0.99140422 -28.86803562 0.03358331 0 0 Z M144.89850616 289.55773163 C141.73596595 294.44529377 140.77988546 298.91276272 140.74752522 304.6619997 C140.73936718 305.6987653 140.73120914 306.73553089 140.72280389 307.80371362 C140.71889553 308.94133305 140.71498718 310.07895248 140.71096039 311.25104523 C140.70305031 312.46077804 140.69514022 313.67051086 140.68699044 314.91690224 C140.66623691 318.27657604 140.65000161 321.63621493 140.63585007 324.99591935 C140.62293637 327.87744136 140.60638746 330.75893812 140.58987281 333.6404414 C140.43380545 360.98404601 140.35883018 388.32823775 140.29825306 415.6722002 C140.29022476 419.23308406 140.2820564 422.79396755 140.27375031 426.35485077 C140.2716927 427.23985731 140.2696351 428.12486385 140.26751515 429.03668877 C140.23313402 443.35635262 140.16051142 457.67556726 140.07284269 471.99499331 C139.9835069 486.70907279 139.93229943 501.42291991 139.91695088 516.13726491 C139.90731541 524.39375573 139.88074529 532.64943812 139.81064034 540.90565681 C139.75092348 547.94128136 139.72551525 554.97598987 139.74397919 562.01186154 C139.75232706 565.59720972 139.74494024 569.18058518 139.69299316 572.76560974 C139.46879591 589.06863174 139.96950802 600.07904764 150.89850616 612.55773163 C152.11148418 614.50885852 153.28840432 616.48379292 154.39850616 618.49523163 C155.64466646 620.81539274 155.64466646 620.81539274 156.89850616 622.55773163 C157.55850616 622.55773163 158.21850616 622.55773163 158.89850616 622.55773163 C159.22850616 624.20773163 159.55850616 625.85773163 159.89850616 627.55773163 C160.55850616 627.55773163 161.21850616 627.55773163 161.89850616 627.55773163 C162.12538116 628.23835663 162.35225616 628.91898163 162.58600616 629.62023163 C163.95606837 632.68656132 165.62539396 635.05787462 167.61334991 637.74132538 C169.19378872 639.97507628 170.47870649 642.34862047 171.80084991 644.74132538 C173.43606423 647.447285 175.37325844 649.89546276 177.33600616 652.37023163 C179.00772974 654.71064464 180.39497044 657.16022391 181.80084991 659.66661835 C183.68618821 662.91480128 185.79695006 666.00929176 187.89850616 669.12023163 C188.32389679 669.75380585 188.74928741 670.38738007 189.18756866 671.0401535 C191.09144492 673.8755275 193.00017116 676.70708889 194.92194366 679.53038788 C197.68577184 683.76352391 200.20566075 688.13296218 202.71881866 692.51866913 C203.72464046 694.23128461 204.80557681 695.89934847 205.89850616 697.55773163 C206.55850616 697.55773163 207.21850616 697.55773163 207.89850616 697.55773163 C208.55850616 699.20773163 209.21850616 700.85773163 209.89850616 702.55773163 C210.22850616 702.55773163 210.55850616 702.55773163 210.89850616 702.55773163 C211.01291669 650.84454079 211.10103735 599.13136273 211.15383281 547.41807026 C211.16008645 541.3147215 211.16655805 535.21137299 211.17316437 529.1080246 C211.17447592 527.89294287 211.17578747 526.67786114 211.17713877 525.42595875 C211.19890334 505.74398475 211.23833069 486.06208367 211.28427014 466.38015294 C211.33100546 446.18905729 211.35879538 425.99799986 211.36894864 405.80685234 C211.37581384 393.34488469 211.39750751 380.88312315 211.4380885 368.42121893 C211.4644907 359.87900219 211.47251285 351.33689221 211.46601305 342.79463762 C211.46280626 337.86400633 211.46776867 332.93373552 211.49453354 328.00316811 C211.51886059 323.48875945 211.52009732 318.97495379 211.50300064 314.46051741 C211.50088756 312.82780308 211.50723498 311.19505116 211.52292208 309.56241083 C211.78736062 297.58047638 211.78736062 297.58047638 205.89850616 287.55773163 C196.94049551 279.74696459 184.03654575 278.984444 172.63678741 279.28038788 C161.95952952 280.07253554 152.85309379 281.9896017 144.89850616 289.55773163 Z " fill="#000000" transform="translate(513.1014938354492,-0.5577316284179688)"/>
</svg>
