<?xml version="1.0" encoding="UTF-8"?>
<svg version="1.1" xmlns="http://www.w3.org/2000/svg" width="993" height="1024">
<path d="M0 0 C1.216875 0.19867676 2.43375 0.39735352 3.6875 0.60205078 C31.24675983 5.20100227 57.33497704 12.94818618 83 24 C83.7852002 24.33467285 84.57040039 24.6693457 85.37939453 25.01416016 C103.3910544 32.77940133 120.41923375 43.11200172 136 55 C136.57121582 55.42990234 137.14243164 55.85980469 137.73095703 56.30273438 C157.15214253 70.95821448 176.54038976 88.40381364 191 108 C191.74121094 108.97453125 192.48242188 109.9490625 193.24609375 110.953125 C202.92307969 124.20390508 209.43168228 139.00420197 213 155 C213.19609863 155.87092285 213.39219727 156.7418457 213.59423828 157.63916016 C220.43208184 189.90505971 218.62422714 225.5382606 214 258 C213.90525391 258.68267944 213.81050781 259.36535889 213.71289062 260.06872559 C203.05944636 336.82313591 178.41631207 411.37985784 147 482 C146.505 483.11842285 146.01 484.2368457 145.5 485.38916016 C132.5112584 514.59127886 118.22714998 543.45946848 102 571 C101.2175495 572.3469596 100.43621154 573.69456639 99.65625 575.04296875 C98.11431486 577.70158311 96.561664 580.35297951 95 583 C104.0512087 583.32040528 112.59250814 582.54410711 121.51522827 581.03378296 C123.61256609 580.67903164 125.71171772 580.33757111 127.81176758 579.99926758 C131.87618995 579.34279106 135.93822036 578.67263818 140 578 C163.12949286 574.1743861 184.46252447 572.67425569 204.62890625 586.84765625 C212.96489086 593.71673324 220.14854645 604.02107745 221.31591797 614.96044922 C221.47555015 618.3759659 221.51861327 621.76831321 221.5 625.1875 C221.49427979 626.3940625 221.48855957 627.600625 221.48266602 628.84375 C221.30658684 637.59909439 220.47605236 644.3349027 216 652 C215.50371094 652.91910156 215.00742187 653.83820312 214.49609375 654.78515625 C194.75447747 688.6075398 150.73791078 713.00153094 114 723 C98.50001731 727.06969989 82.92791354 730.21170593 67 732 C66.23042969 732.09716309 65.46085938 732.19432617 64.66796875 732.29443359 C55.10227652 733.36163407 45.48406286 733.07332497 35.875 733 C32.33073268 732.97348428 28.78651593 732.95351283 25.2421875 732.9375 C24.42877899 732.92920166 23.61537048 732.92090332 22.77731323 732.91235352 C20.85133948 732.90381665 18.92525149 732.94657274 17 733 C13.35109205 736.64890795 14.62394406 749.33522348 14.38671875 754.390625 C14.27505892 756.63122121 14.1626427 758.87177982 14.04956055 761.11230469 C13.99101898 762.27709351 13.93247742 763.44188232 13.87216187 764.64196777 C11.62943298 808.46172492 7.72378384 851.81061146 -5 894 C-5.3707666 895.25055176 -5.3707666 895.25055176 -5.74902344 896.52636719 C-18.2303639 938.11371421 -43.06441843 975.14458395 -81.8125 996.09375 C-121.73841204 1017.02825486 -174.76455035 1029.34538745 -218.88891602 1016.04980469 C-232.44277735 1011.70220392 -244.23376401 1005.38341669 -255 996 C-255.60972656 995.52175781 -256.21945312 995.04351563 -256.84765625 994.55078125 C-276.25892553 979.11904326 -287.04911937 953.28955981 -294.6875 930.4375 C-294.96858612 929.60451385 -295.24967224 928.77152771 -295.53927612 927.91329956 C-299.96247372 914.76000331 -303.84448751 901.7359286 -306 888 C-306.17289551 886.93088379 -306.34579102 885.86176758 -306.52392578 884.76025391 C-312.90437096 844.07127633 -314.36775207 802.12599632 -314 761 C-314.89976562 761.37511719 -315.79953125 761.75023437 -316.7265625 762.13671875 C-357.78933283 778.69235754 -409.77365213 779.34160811 -450.86621094 762.38598633 C-453.96513035 761.01919263 -456.97985594 759.53454079 -460 758 C-461.010625 757.50628906 -462.02125 757.01257813 -463.0625 756.50390625 C-470.85737143 752.50903464 -477.95849323 747.43122694 -483.875 740.9375 C-484.57625 740.298125 -485.2775 739.65875 -486 739 C-489.54959886 739.18596987 -492.00878054 741.27648166 -494.8203125 743.28881836 C-514.42917226 757.32115223 -537.16278165 762.66120385 -561.08203125 759.53125 C-581.93455472 755.86295268 -599.66896467 745.25131912 -615 731 C-615.54398438 730.49452637 -616.08796875 729.98905273 -616.6484375 729.46826172 C-636.20554581 711.06460962 -650.18240127 688.41396019 -663 665 C-663.62672607 663.8560376 -664.25345215 662.7120752 -664.89916992 661.53344727 C-669.56286962 652.9473721 -673.82081228 644.23108224 -677.8125 635.3125 C-678.10992096 634.65114044 -678.40734192 633.98978088 -678.71377563 633.30838013 C-684.96032162 619.39114611 -690.61799783 605.27383294 -696 591 C-696.44408203 589.83243164 -696.88816406 588.66486328 -697.34570312 587.46191406 C-727.97585649 506.69967516 -749.35228701 421.26269849 -771.203125 272.94921875 C-771.21013931 271.82471313 -771.21715363 270.70020752 -771.22438049 269.54162598 C-771.24181768 265.92354294 -771.24823455 262.30562354 -771.25 258.6875 C-771.25067474 257.45246735 -771.25134949 256.21743469 -771.25204468 254.94497681 C-771.23597863 236.45415876 -770.8766761 218.30127304 -768 200 C-767.82839355 198.89640137 -767.65678711 197.79280273 -767.47998047 196.65576172 C-764.90748457 180.74950693 -760.9754004 165.31846466 -756 150 C-755.76200684 149.26668457 -755.52401367 148.53336914 -755.27880859 147.77783203 C-738.94855234 98.69232646 -704.45076107 58.33297013 -658.5390625 34.640625 C-654.42353993 32.60463517 -650.23865917 30.76324292 -646 29 C-645.2982666 28.70432129 -644.5965332 28.40864258 -643.87353516 28.10400391 C-615.08060497 16.18319869 -583.08862905 10.57206234 -552 10 C-551.13761719 9.97953613 -550.27523437 9.95907227 -549.38671875 9.93798828 C-495.34695027 8.79483933 -437.48886332 17.67554663 -386.55078125 36.50024414 C-381.92218053 38.11472804 -379.43579728 38.05404333 -375 36 C-372.60350251 34.82112248 -370.23866051 33.61537525 -367.875 32.375 C-313.26876173 4.56360362 -250.45608802 2.70704065 -190.88085938 11.76635742 C-179.12374452 13.50716582 -170.25161337 11.68556479 -158.8125 8.75 C-143.66118313 4.99497419 -128.45436619 2.22959902 -113 0 C-111.93168945 -0.16516113 -110.86337891 -0.33032227 -109.76269531 -0.50048828 C-74.48699435 -5.82211119 -35.16675844 -5.98114336 0 0 Z " fill="#FDFDFD" transform="translate(772,3)"/>
<path d="M0 0 C0.82898804 0.00059418 1.65797607 0.00118835 2.51208496 0.00180054 C17.26482061 0.04212551 31.96117879 0.32684887 46.5 3.0625 C47.48234619 3.24353271 48.46469238 3.42456543 49.47680664 3.61108398 C51.46164431 3.98021783 53.44564626 4.35387877 55.42871094 4.73242188 C57.8679881 5.19005617 60.30956266 5.60957381 62.7578125 6.015625 C103.11767808 13.10764304 141.273176 33.17123904 173.1875 58.25 C174.17105469 59.01957031 175.15460938 59.78914063 176.16796875 60.58203125 C190.51269837 72.07023462 204.48831535 85.05595817 216.1875 99.25 C216.60435059 99.75305664 217.02120117 100.25611328 217.45068359 100.77441406 C274.1875 169.5212135 274.1875 169.5212135 274.1875 200.25 C272.92268799 200.23952637 271.65787598 200.22905273 270.35473633 200.21826172 C265.60411476 200.18170773 260.8535053 200.15897235 256.1027832 200.14013672 C254.05751445 200.13015901 252.01225966 200.11657205 249.96704102 200.09912109 C238.8438687 200.00667723 228.11879739 199.96337745 217.1875 202.25 C216.45297607 202.3855127 215.71845215 202.52102539 214.96166992 202.66064453 C194.88676455 206.49503804 177.34630653 216.76429439 165.5 233.65625 C154.64937271 250.80024112 153.53272843 269.54956039 154.1875 289.25 C154.23390625 290.80847656 154.23390625 290.80847656 154.28125 292.3984375 C155.22108156 307.2947677 159.33748696 322.21444049 164.1875 336.25 C164.52523438 337.24499512 164.86296875 338.23999023 165.2109375 339.26513672 C171.02677157 356.33410834 177.59667832 372.89497119 185.1875 389.25 C185.66977051 390.29285156 186.15204102 391.33570313 186.64892578 392.41015625 C193.14182701 406.37707015 200.1463533 419.98236649 207.63134766 433.44042969 C210.39050857 438.42198346 213.10124743 443.42975526 215.8125 448.4375 C216.35664551 449.44240479 216.90079102 450.44730957 217.46142578 451.48266602 C229.8322049 474.36618466 229.8322049 474.36618466 235.21484375 485.44384766 C242.83069653 501.05405192 252.43727469 514.65998372 263.47265625 528.015625 C264.12105469 528.81484375 264.76945312 529.6140625 265.4375 530.4375 C265.99953125 531.11167969 266.5615625 531.78585937 267.140625 532.48046875 C267.48609375 533.06441406 267.8315625 533.64835938 268.1875 534.25 C267.8575 535.24 267.5275 536.23 267.1875 537.25 C264.6328125 538.35546875 264.6328125 538.35546875 261.3125 539.4375 C248.56030458 544.12169459 240.0311445 552.03276204 233.5 563.8125 C228.3454994 575.02311351 226.95972987 585.67737344 226.6875 597.875 C225.89221054 632.8255084 220.20806542 667.65315339 215.81800079 702.29940796 C214.65981992 711.4433349 213.53523266 720.59020496 212.45727539 729.74389648 C209.35599296 756.06588626 205.41304152 782.25140901 200.70458984 808.33349609 C200.2730371 810.76755135 199.87061116 813.20242089 199.48828125 815.64453125 C195.97836168 836.27928136 186.98780881 855.39692716 172.1875 870.25 C171.59839844 870.86230469 171.00929688 871.47460938 170.40234375 872.10546875 C147.46839213 894.13214316 106.81542296 901.96032628 76.375 901.43359375 C61.18450856 900.99561576 48.18081604 896.70831673 36.1875 887.25 C35.57519531 886.80140625 34.96289062 886.3528125 34.33203125 885.890625 C15.03477772 870.87674354 4.94000665 842.14374571 1.87612915 818.88644409 C1.28106987 813.89370375 0.78202505 808.89240632 0.30712891 803.88696289 C0.06299172 801.31767484 -0.19224417 798.74967331 -0.44921875 796.18164062 C-0.61523577 794.48704296 -0.780621 792.79238325 -0.9453125 791.09765625 C-1.01823517 790.3606398 -1.09115784 789.62362335 -1.16629028 788.86427307 C-4.6412725 751.90769035 -5.02278061 714.48023337 -4.90234375 677.39453125 C-4.90034863 676.73096666 -4.89835351 676.06740207 -4.89629793 675.38372946 C-4.86100134 663.88444443 -4.79766808 652.38532222 -4.7230835 640.88623047 C-4.67009557 632.67925355 -4.6292642 624.47241283 -4.60574532 616.26529503 C-4.59025259 612.49405066 -4.5573853 608.72322321 -4.52391052 604.95210266 C-4.51621191 602.64491061 -4.50941304 600.33771531 -4.50366211 598.03051758 C-4.48973419 597.00992752 -4.47580627 595.98933746 -4.4614563 594.93782043 C-4.48217247 578.61652396 -10.62273116 564.09799054 -21.8125 552.25 C-27.75531705 546.65676043 -34.29285427 543.2920385 -41.8125 540.25 C-42.62203125 539.89550781 -43.4315625 539.54101562 -44.265625 539.17578125 C-49.37215815 537.31957211 -54.2940982 537.13246529 -59.6875 537.1875 C-61.41613281 537.20103516 -61.41613281 537.20103516 -63.1796875 537.21484375 C-64.04851562 537.22644531 -64.91734375 537.23804688 -65.8125 537.25 C-65.19053766 531.56890499 -63.77100158 526.46655953 -61.9375 521.0625 C-61.63287842 520.16031738 -61.32825684 519.25813477 -61.0144043 518.32861328 C-55.53406488 502.38116179 -49.36062026 486.66842558 -42.31933594 471.34643555 C-30.79008415 446.2200639 -22.33060208 420.73948388 -18.8125 393.25 C-18.70341309 392.42927002 -18.59432617 391.60854004 -18.48193359 390.76293945 C-17.48690268 381.89217784 -17.66220338 372.95096297 -17.68212891 364.03735352 C-17.68744213 361.21820582 -17.68218336 358.39922069 -17.67578125 355.58007812 C-17.66412434 336.43628815 -18.97585843 318.03716299 -22 299.125 C-22.15622833 298.13787018 -22.31245667 297.15074036 -22.47341919 296.13369751 C-27.9745135 259.02177077 -27.9745135 259.02177077 -46.8125 227.25 C-47.66521484 226.24259766 -47.66521484 226.24259766 -48.53515625 225.21484375 C-59.52111697 213.10929468 -77.29222541 205.93007542 -93.36328125 205.05712891 C-111.78150605 204.66265758 -129.01598722 204.8321295 -146.8125 210.25 C-147.74529785 210.52875977 -148.6780957 210.80751953 -149.63916016 211.09472656 C-164.02628048 215.49939503 -177.44158367 221.55937558 -190.83911133 228.3671875 C-192.8125 229.25 -192.8125 229.25 -194.8125 229.25 C-192.46349271 161.24623889 -168.16688868 89.40794166 -118.1875 41.75 C-96.40065701 21.89617896 -69.44612478 9.45949102 -40.8125 3.25 C-39.69705811 3.0022583 -39.69705811 3.0022583 -38.55908203 2.74951172 C-25.79523537 0.06223984 -12.9852904 -0.01023691 0 0 Z " fill="#336791" transform="translate(513.8125,66.75)"/>
<path d="M0 0 C0.86036865 -0.00239685 1.7207373 -0.0047937 2.60717773 -0.00726318 C20.92832317 -0.00768167 38.9670681 1.83950548 57.125 4.1484375 C57.91085983 4.24751907 58.69671967 4.34660065 59.50639343 4.44868469 C64.81192853 5.15605848 69.97574565 6.2293728 75.1875 7.4375 C77.21642555 7.86297767 79.24629136 8.28401242 81.27734375 8.69921875 C93.34765581 11.20102994 105.34222741 13.8676048 117.25 17.0625 C118.80738892 17.47761841 118.80738892 17.47761841 120.39624023 17.90112305 C127.1291331 19.74510124 133.66421931 21.95389135 140.1875 24.4375 C138.63625555 27.71932107 137.06287291 29.66651884 134.375 32.125 C105.41391438 60.57555366 87.13768909 102.02094727 76.1875 140.4375 C75.98495605 141.11393555 75.78241211 141.79037109 75.57373047 142.48730469 C67.8667828 168.25953546 63.51714443 195.693778 61.1875 222.4375 C61.08381104 223.55318359 61.08381104 223.55318359 60.97802734 224.69140625 C60.09007641 234.56898178 60.0937517 244.46514875 60.0625 254.375 C60.05774658 255.58897461 60.05299316 256.80294922 60.0480957 258.05371094 C60.05982724 264.56949227 60.25857474 271.04146586 60.67578125 277.54296875 C61.4829304 290.61871332 61.47404176 303.71611333 61.5 316.8125 C61.50283052 317.82438889 61.50283052 317.82438889 61.50571823 318.85671997 C61.57154698 344.73600056 61.13502261 371.00632451 56.63720703 396.56445312 C54.46538366 410.43959832 55.11819107 426.72198908 58.1875 440.4375 C58.45409424 441.65687256 58.45409424 441.65687256 58.72607422 442.90087891 C66.19942066 476.30798601 81.9472014 502.53701867 106.1875 526.4375 C100.99534852 532.1100277 95.80014824 537.77948132 90.57788086 543.42431641 C80.15789395 554.6887134 69.98928969 566.14969426 60.01464844 577.80932617 C55.69404767 582.85647639 51.34083601 587.8747293 46.98291016 592.88964844 C43.43329264 596.98134675 39.92489317 601.10522307 36.4375 605.25 C12.03256789 634.15299321 12.03256789 634.15299321 -3.1953125 635.67578125 C-17.45387521 636.06169676 -27.92248377 627.71615531 -37.98828125 618.32421875 C-43.17091975 613.1702433 -47.53295645 607.34516509 -51.8125 601.4375 C-52.43656738 600.57777588 -52.43656738 600.57777588 -53.07324219 599.70068359 C-79.43014843 562.88253106 -95.09412839 518.94846271 -110.05218506 476.5869751 C-110.78116404 474.52608944 -111.51407444 472.46665242 -112.24853516 470.40771484 C-117.81645726 454.7850339 -122.77380484 439.11596963 -127.08496094 423.1015625 C-128.08326613 419.44602347 -129.1604775 415.8166681 -130.25 412.1875 C-142.54006391 370.82482987 -152.29234191 328.89266264 -160.5625 286.5625 C-160.74713806 285.6174762 -160.93177612 284.67245239 -161.12200928 283.6987915 C-162.19542573 278.18901945 -163.25273736 272.67639185 -164.2956543 267.1607666 C-164.63983205 265.34728964 -164.98699426 263.53437651 -165.3371582 261.7220459 C-169.71954929 239.02117845 -172.29645255 216.9965447 -172.09375 193.8425293 C-172.06219187 190.2145769 -172.05271614 186.58706154 -172.046875 182.95898438 C-172.03771542 180.60416144 -172.027343 178.24934284 -172.015625 175.89453125 C-172.01137512 174.83385941 -172.00712524 173.77318756 -172.00274658 172.68037415 C-171.56223906 125.78964178 -158.12416784 76.87931649 -124.38769531 42.97363281 C-116.01541697 34.80897452 -107.05388912 28.13368546 -96.8125 22.4375 C-95.95011719 21.94902588 -95.95011719 21.94902588 -95.0703125 21.45068359 C-76.82831262 11.23934578 -56.44383988 5.33886327 -35.8125 2.4375 C-34.5752417 2.26307373 -33.3379834 2.08864746 -32.06323242 1.90893555 C-21.36790609 0.48397582 -10.78381302 0.00182989 0 0 Z " fill="#336791" transform="translate(229.8125,68.5625)"/>
<path d="M0 0 C1.216875 0.19867676 2.43375 0.39735352 3.6875 0.60205078 C31.24675983 5.20100227 57.33497704 12.94818618 83 24 C83.7852002 24.33467285 84.57040039 24.6693457 85.37939453 25.01416016 C103.3910544 32.77940133 120.41923375 43.11200172 136 55 C136.57121582 55.42990234 137.14243164 55.85980469 137.73095703 56.30273438 C157.15214253 70.95821448 176.54038976 88.40381364 191 108 C191.74121094 108.97453125 192.48242188 109.9490625 193.24609375 110.953125 C202.92307969 124.20390508 209.43168228 139.00420197 213 155 C213.19609863 155.87092285 213.39219727 156.7418457 213.59423828 157.63916016 C220.43208184 189.90505971 218.62422714 225.5382606 214 258 C213.90525391 258.68267944 213.81050781 259.36535889 213.71289062 260.06872559 C203.05944636 336.82313591 178.41631207 411.37985784 147 482 C146.505 483.11842285 146.01 484.2368457 145.5 485.38916016 C132.5112584 514.59127886 118.22714998 543.45946848 102 571 C101.2175495 572.3469596 100.43621154 573.69456639 99.65625 575.04296875 C98.11431486 577.70158311 96.561664 580.35297951 95 583 C104.0512087 583.32040528 112.59250814 582.54410711 121.51522827 581.03378296 C123.61256609 580.67903164 125.71171772 580.33757111 127.81176758 579.99926758 C131.87618995 579.34279106 135.93822036 578.67263818 140 578 C163.12949286 574.1743861 184.46252447 572.67425569 204.62890625 586.84765625 C212.96489086 593.71673324 220.14854645 604.02107745 221.31591797 614.96044922 C221.47555015 618.3759659 221.51861327 621.76831321 221.5 625.1875 C221.49427979 626.3940625 221.48855957 627.600625 221.48266602 628.84375 C221.30658684 637.59909439 220.47605236 644.3349027 216 652 C215.50371094 652.91910156 215.00742187 653.83820312 214.49609375 654.78515625 C194.75447747 688.6075398 150.73791078 713.00153094 114 723 C98.50001731 727.06969989 82.92791354 730.21170593 67 732 C66.23042969 732.09716309 65.46085938 732.19432617 64.66796875 732.29443359 C55.10227652 733.36163407 45.48406286 733.07332497 35.875 733 C32.33073268 732.97348428 28.78651593 732.95351283 25.2421875 732.9375 C24.42877899 732.92920166 23.61537048 732.92090332 22.77731323 732.91235352 C20.85133948 732.90381665 18.92525149 732.94657274 17 733 C13.35109205 736.64890795 14.62394406 749.33522348 14.38671875 754.390625 C14.27505892 756.63122121 14.1626427 758.87177982 14.04956055 761.11230469 C13.99101898 762.27709351 13.93247742 763.44188232 13.87216187 764.64196777 C11.62943298 808.46172492 7.72378384 851.81061146 -5 894 C-5.3707666 895.25055176 -5.3707666 895.25055176 -5.74902344 896.52636719 C-18.2303639 938.11371421 -43.06441843 975.14458395 -81.8125 996.09375 C-121.73841204 1017.02825486 -174.76455035 1029.34538745 -218.88891602 1016.04980469 C-232.44277735 1011.70220392 -244.23376401 1005.38341669 -255 996 C-255.60972656 995.52175781 -256.21945312 995.04351563 -256.84765625 994.55078125 C-276.25892553 979.11904326 -287.04911937 953.28955981 -294.6875 930.4375 C-294.96858612 929.60451385 -295.24967224 928.77152771 -295.53927612 927.91329956 C-299.96247372 914.76000331 -303.84448751 901.7359286 -306 888 C-306.17289551 886.93088379 -306.34579102 885.86176758 -306.52392578 884.76025391 C-312.90437096 844.07127633 -314.36775207 802.12599632 -314 761 C-314.89976562 761.37511719 -315.79953125 761.75023437 -316.7265625 762.13671875 C-357.78933283 778.69235754 -409.77365213 779.34160811 -450.86621094 762.38598633 C-453.96513035 761.01919263 -456.97985594 759.53454079 -460 758 C-461.010625 757.50628906 -462.02125 757.01257813 -463.0625 756.50390625 C-470.85737143 752.50903464 -477.95849323 747.43122694 -483.875 740.9375 C-484.57625 740.298125 -485.2775 739.65875 -486 739 C-489.54959886 739.18596987 -492.00878054 741.27648166 -494.8203125 743.28881836 C-514.42917226 757.32115223 -537.16278165 762.66120385 -561.08203125 759.53125 C-581.93455472 755.86295268 -599.66896467 745.25131912 -615 731 C-615.54398438 730.49452637 -616.08796875 729.98905273 -616.6484375 729.46826172 C-636.20554581 711.06460962 -650.18240127 688.41396019 -663 665 C-663.62672607 663.8560376 -664.25345215 662.7120752 -664.89916992 661.53344727 C-669.56286962 652.9473721 -673.82081228 644.23108224 -677.8125 635.3125 C-678.10992096 634.65114044 -678.40734192 633.98978088 -678.71377563 633.30838013 C-684.96032162 619.39114611 -690.61799783 605.27383294 -696 591 C-696.44408203 589.83243164 -696.88816406 588.66486328 -697.34570312 587.46191406 C-727.97585649 506.69967516 -749.35228701 421.26269849 -771.203125 272.94921875 C-771.21013931 271.82471313 -771.21715363 270.70020752 -771.22438049 269.54162598 C-771.24181768 265.92354294 -771.24823455 262.30562354 -771.25 258.6875 C-771.25067474 257.45246735 -771.25134949 256.21743469 -771.25204468 254.94497681 C-771.23597863 236.45415876 -770.8766761 218.30127304 -768 200 C-767.82839355 198.89640137 -767.65678711 197.79280273 -767.47998047 196.65576172 C-764.90748457 180.74950693 -760.9754004 165.31846466 -756 150 C-755.76200684 149.26668457 -755.52401367 148.53336914 -755.27880859 147.77783203 C-738.94855234 98.69232646 -704.45076107 58.33297013 -658.5390625 34.640625 C-654.42353993 32.60463517 -650.23865917 30.76324292 -646 29 C-645.2982666 28.70432129 -644.5965332 28.40864258 -643.87353516 28.10400391 C-615.08060497 16.18319869 -583.08862905 10.57206234 -552 10 C-551.13761719 9.97953613 -550.27523437 9.95907227 -549.38671875 9.93798828 C-495.34695027 8.79483933 -437.48886332 17.67554663 -386.55078125 36.50024414 C-381.92218053 38.11472804 -379.43579728 38.05404333 -375 36 C-372.60350251 34.82112248 -370.23866051 33.61537525 -367.875 32.375 C-313.26876173 4.56360362 -250.45608802 2.70704065 -190.88085938 11.76635742 C-179.12374452 13.50716582 -170.25161337 11.68556479 -158.8125 8.75 C-143.66118313 4.99497419 -128.45436619 2.22959902 -113 0 C-111.93168945 -0.16516113 -110.86337891 -0.33032227 -109.76269531 -0.50048828 C-74.48699435 -5.82211119 -35.16675844 -5.98114336 0 0 Z M-172.2421875 41.27734375 C-177.72796911 43.12289383 -181.40341947 43.13197708 -187 42 C-189.42624529 41.62089917 -191.85343321 41.24780908 -194.28125 40.87890625 C-197.70200172 40.33721445 -201.12119218 39.78575598 -204.54003906 39.23217773 C-221.29793561 36.52584596 -237.68723602 34.5830998 -254.6875 34.625 C-255.94734207 34.62581573 -255.94734207 34.62581573 -257.2326355 34.62664795 C-281.0974376 34.69701653 -304.22903585 37.59473561 -327 45 C-327.80405273 45.25620117 -328.60810547 45.51240234 -329.43652344 45.77636719 C-343.69037934 50.40002334 -358.92213099 56.52497552 -370.734375 65.8984375 C-374 68 -374 68 -376.80957031 67.7565918 C-380.05072161 66.98797167 -383.15595138 66.0600113 -386.3125 64.99609375 C-388.14941406 64.38556152 -388.14941406 64.38556152 -390.0234375 63.76269531 C-390.67022461 63.54665649 -391.31701172 63.33061768 -391.98339844 63.10803223 C-422.93509417 52.81640604 -454.25483112 45.5905668 -486.5 40.6875 C-487.54244873 40.52797852 -488.58489746 40.36845703 -489.65893555 40.20410156 C-505.45805872 37.91989098 -521.2680684 37.75774879 -537.2019043 37.70483398 C-539.58933466 37.69337225 -541.97674058 37.67301402 -544.36401367 37.64331055 C-581.69709959 37.18145262 -618.0022257 44.18906502 -651 62 C-652.02222656 62.54140625 -653.04445313 63.0828125 -654.09765625 63.640625 C-675.75685198 75.65083852 -694.52259778 93.24881371 -708 114 C-708.39477539 114.60376465 -708.78955078 115.2075293 -709.19628906 115.82958984 C-745.48428848 172.05358895 -750.018589 247.54290877 -739 312 C-738.77211111 313.37228385 -738.54491574 314.74468303 -738.31835938 316.1171875 C-736.89517157 324.69352107 -735.36551514 333.2476474 -733.77783203 341.79492188 C-733.13611116 345.2511571 -732.51089826 348.71011028 -731.89160156 352.17042542 C-728.53003554 370.92926498 -724.48452126 389.47539771 -720 408 C-719.48871433 410.13781319 -718.97826451 412.27582649 -718.46875 414.4140625 C-717.49835059 418.48197939 -716.52160879 422.54828161 -715.5390625 426.61328125 C-714.41786456 431.25375433 -713.31152111 435.89756426 -712.2109375 440.54296875 C-711.59898264 443.11198496 -710.98700389 445.68099547 -710.375 448.25 C-710.09785156 449.42763916 -709.82070313 450.60527832 -709.53515625 451.81860352 C-707.91905625 458.5774056 -706.06068184 465.20139566 -703.97314453 471.82910156 C-702.40825531 476.92814351 -701.09527327 482.08964091 -699.75 487.25 C-696.45616667 499.61598133 -692.74301375 511.78917321 -688.69134521 523.92663574 C-687.92139804 526.23572956 -687.15533089 528.5460958 -686.38916016 530.85644531 C-651.64345551 643.24903063 -651.64345551 643.24903063 -572.625 724.4375 C-564.59972563 728.40492437 -557.52021861 729.34115905 -548.6875 729.3125 C-547.21506836 729.33666992 -547.21506836 729.33666992 -545.71289062 729.36132812 C-526.69864787 729.37391201 -511.20426869 718.81378565 -498 706 C-492.44238369 700.34056477 -487.49177973 694.19800193 -482.50390625 688.0390625 C-478.53791952 683.22543118 -474.42872969 678.53827622 -470.33203125 673.8359375 C-467.65766167 670.7646458 -465.00997371 667.67185751 -462.37109375 664.57006836 C-457.18782666 658.4809137 -451.8784686 652.53440189 -446.44921875 646.6640625 C-444.43126221 644.46909223 -442.45196555 642.2533379 -440.5 640 C-437.63676072 636.70045759 -434.70433847 633.46787101 -431.75 630.25 C-431.28730713 629.74533203 -430.82461426 629.24066406 -430.34790039 628.72070312 C-427.88340832 626.03662798 -425.40777192 623.36374299 -422.91796875 620.703125 C-422.4187793 620.16655273 -421.91958984 619.62998047 -421.40527344 619.07714844 C-420.01166742 617.5796942 -418.61338429 616.08659671 -417.21484375 614.59375 C-415.3502877 612.41021346 -414.09629993 610.62616479 -413 608 C-411.9584375 608.51949219 -410.916875 609.03898438 -409.84375 609.57421875 C-392.19601407 618.22572121 -374.95050544 623.84496258 -355 623 C-373.40894423 649.32109791 -390.49059137 659.46006005 -422.0625 666 C-436.0440161 668.90816273 -449.07432246 671.73307401 -461 680 C-461.928125 680.61875 -462.85625 681.2375 -463.8125 681.875 C-468.80195055 686.72189482 -472.09861463 692.54931117 -472.3125 699.5625 C-472.17198102 707.61892139 -469.57926974 713.70351162 -464.125 719.625 C-450.70717775 732.07497933 -432.60608028 737.62092808 -415 741 C-414.07179443 741.18095215 -413.14358887 741.3619043 -412.18725586 741.54833984 C-403.69953892 743.03857497 -395.42296308 743.30888154 -386.8347168 743.26074219 C-384.56857459 743.25002872 -382.30322763 743.26069962 -380.03710938 743.2734375 C-367.82322704 743.28630593 -355.91360266 742.19605836 -344.125 738.8125 C-343.37379883 738.59891846 -342.62259766 738.38533691 -341.84863281 738.1652832 C-325.19456387 733.23236337 -309.38675409 725.22488283 -296.20703125 713.8828125 C-294 712 -294 712 -291 710 C-291.00888245 710.92641296 -291.01776489 711.85282593 -291.0269165 712.80731201 C-291.40069291 753.1555035 -291.68943041 793.46127534 -289.1875 833.75 C-289.14577164 834.43662216 -289.10404327 835.12324432 -289.06105042 835.83067322 C-286.62413502 884.2776066 -286.62413502 884.2776066 -272 930 C-271.42306396 931.21115479 -271.42306396 931.21115479 -270.83447266 932.44677734 C-265.42407994 943.68272216 -259.27288259 953.65418384 -251 963 C-250.26136719 963.83917969 -249.52273438 964.67835938 -248.76171875 965.54296875 C-236.3449354 978.73154485 -219.44553251 987.63861687 -202 992 C-201.11828125 992.22558594 -200.2365625 992.45117188 -199.328125 992.68359375 C-181.9312108 996.32890092 -163.29091399 994.19132223 -146 991 C-145.22849609 990.86078125 -144.45699219 990.7215625 -143.66210938 990.578125 C-108.53834075 984.05470796 -72.82016335 968.29911142 -51.83349609 938.33447266 C-39.33241784 919.87351713 -32.77544709 898.01342432 -29 876.25 C-28.7637081 874.93086629 -28.52672908 873.61185548 -28.2890625 872.29296875 C-27.49781461 867.86667805 -26.74584389 863.43413854 -26 859 C-25.84884735 858.10903625 -25.6976947 857.21807251 -25.54196167 856.30010986 C-22.66469514 839.23777169 -20.40894556 822.11815266 -18.31536484 804.94467545 C-17.88377892 801.41218436 -17.44732759 797.88029501 -17.01098633 794.34838867 C-16.92386603 793.64314403 -16.83674574 792.93789938 -16.74698544 792.21128368 C-16.57187097 790.79377787 -16.39673924 789.37627418 -16.22159004 787.95877266 C-15.96263416 785.86139812 -15.70427608 783.76395064 -15.44602966 781.66648865 C-14.17149346 771.32455824 -12.84456777 760.99012139 -11.49371338 750.65792847 C-7.61663582 724.4038858 -7.61663582 724.4038858 -6 698 C-5.195625 698.29003906 -5.195625 698.29003906 -4.375 698.5859375 C18.85818938 706.30485897 44.88222732 703.90163022 68.75 700.75 C69.53634827 700.64767059 70.32269653 700.54534119 71.13287354 700.43991089 C113.45136075 694.82826797 155.20453506 677.60123499 184 645 C189.72255364 636.95408958 192.94202362 629.95202373 192 620 C190.91127795 614.38813271 188.53751596 610.71898307 183.99609375 607.25390625 C167.93408943 597.16407575 144.32268907 605.23102941 127.171875 608.23242188 C102.36660743 612.45595252 70.08869477 616.17403906 47 604 C48.27023615 600.59089109 49.73165863 597.64952911 51.73046875 594.61328125 C52.27848145 593.77087891 52.82649414 592.92847656 53.39111328 592.06054688 C53.9839209 591.15369141 54.57672852 590.24683594 55.1875 589.3125 C67.76950138 569.7922082 79.08503936 549.49162197 90 529 C90.53947266 527.98953613 91.07894531 526.97907227 91.63476562 525.93798828 C123.276716 466.44053776 148.57728855 403.28484628 166.37353516 338.26904297 C166.9974713 336.00915892 167.64209738 333.7561668 168.29296875 331.50390625 C183.68785026 277.93654246 197.10967661 212.10369624 183 157 C182.81276367 156.25685547 182.62552734 155.51371094 182.43261719 154.74804688 C177.65769256 136.68745112 166.34529212 123.48393557 154 110 C152.68128906 108.52466797 152.68128906 108.52466797 151.3359375 107.01953125 C145.5726814 100.59093028 139.60819781 94.5721668 133 89 C132.46955078 88.55188965 131.93910156 88.1037793 131.39257812 87.64208984 C105.61854031 66.02963759 75.85508428 49.71158102 44 39 C42.83162598 38.60385498 42.83162598 38.60385498 41.63964844 38.19970703 C27.36369703 33.43614669 12.8095226 30.57014064 -2 28 C-3.54747925 27.73050537 -3.54747925 27.73050537 -5.1262207 27.45556641 C-58.66165496 18.31733633 -121.29282935 22.53152145 -172.2421875 41.27734375 Z " fill="#010101" transform="translate(772,3)"/>
<path d="M0 0 C1.56619583 -0.00101212 1.56619583 -0.00101212 3.16403198 -0.00204468 C27.19650072 0.02259173 50.0855445 2.0452199 73.375 8.25 C74.35065918 8.50797363 75.32631836 8.76594727 76.33154297 9.03173828 C103.26721714 16.2621819 129.72979081 26.64804004 152.375 43.25 C153.32761719 43.93191406 154.28023437 44.61382812 155.26171875 45.31640625 C182.01787059 64.86763355 209.56401769 88.88923292 214.98046875 123.0078125 C216.15122578 132.6288851 216.56865812 142.11900037 216.5625 151.8125 C216.56256042 152.47263092 216.56262085 153.13276184 216.56268311 153.81289673 C216.55087317 162.90421351 216.213631 171.81563712 214.95849609 180.82397461 C214.46454146 184.43485971 214.09461753 188.04537732 213.75932312 191.67391968 C212.69306858 202.96423104 210.7478313 214.00432995 208.5625 225.125 C208.19993185 226.99397412 207.83738319 228.86295201 207.47485352 230.73193359 C195.36691097 292.76412724 173.96728556 353.976162 147.375 411.25 C146.76038576 412.58333185 146.14614462 413.91683574 145.53222656 415.25048828 C133.1612134 442.09456336 119.9804423 468.29684707 104.8671875 493.72363281 C102.86991637 497.10513832 100.93018093 500.51741485 99 503.9375 C95.28410882 510.4765033 91.35884533 516.87160933 87.375 523.25 C84.375 522.25 84.375 522.25 82.375 519.25 C82.6476312 514.31467618 84.60129607 510.61353355 86.9375 506.375 C95.22179512 490.51016811 100.45246334 473.0314531 102.375 455.25 C102.50986816 454.00935791 102.50986816 454.00935791 102.64746094 452.74365234 C105.76253704 421.55353116 101.62629025 390.11055545 97.25390625 359.23046875 C94.64466705 339.73187496 95.73753927 320.60946868 98.38671875 301.19140625 C98.48432306 300.47538868 98.58192738 299.75937111 98.6824894 299.02165604 C99.68202615 291.74025566 100.7288282 284.4672231 101.85140896 277.20376301 C104.12761216 262.4187633 105.80477893 247.90049099 105.8359375 232.921875 C105.84298706 231.62538528 105.85003662 230.32889557 105.8572998 228.99311829 C105.71682114 216.88123543 102.89910794 206.40612988 98.375 195.25 C98.01083984 194.32493652 97.64667969 193.39987305 97.27148438 192.44677734 C85.14693985 161.98359748 68.72742662 132.96121898 48.375 107.25 C47.67117188 106.34636719 46.96734375 105.44273437 46.2421875 104.51171875 C39.23657815 95.6199838 32.07899397 86.64442311 23.9140625 78.7890625 C22.30972396 77.18472396 20.87971736 75.50071305 19.4375 73.75 C16.75937858 70.57280608 13.83204275 67.91588637 10.6640625 65.234375 C9.03996607 63.82645523 7.45466722 62.37321609 5.8984375 60.890625 C-16.94304712 39.14295796 -44.39637686 22.95585883 -72.625 9.25 C-72.625 8.59 -72.625 7.93 -72.625 7.25 C-64.15791209 5.18091959 -55.69877694 3.75245314 -47.0625 2.625 C-45.66439087 2.44070435 -45.66439087 2.44070435 -44.23803711 2.25268555 C-29.48373718 0.38897098 -14.85390347 0.00862927 0 0 Z " fill="#336791" transform="translate(714.625,55.75)"/>
<path d="M0 0 C22.30808733 20.31816404 23.25281279 69.91349588 25 98 C26.84444787 140.82861424 18.96107925 179.89841539 1.30584717 218.82748413 C-4.38372064 231.42415606 -9.46245434 244.17661122 -14.125 257.1875 C-14.5293779 258.31291199 -14.5293779 258.31291199 -14.94192505 259.46105957 C-18.20389359 268.57237322 -21.2464528 277.72060626 -24 287 C-50.02493981 288.14675377 -71.84618376 278.57898789 -91.25 261.4375 C-92.8385041 259.96388771 -94.42232014 258.48519518 -96 257 C-96.90492188 256.19175781 -96.90492188 256.19175781 -97.828125 255.3671875 C-117.46138181 237.11009355 -128.87217404 207.64500229 -130.12597656 181.35888672 C-130.45362451 169.49927508 -130.08722288 157.83869594 -128.625 146.0625 C-128.48956787 144.969375 -128.35413574 143.87625 -128.21459961 142.75 C-127.94001327 140.55201328 -127.66487206 138.35409581 -127.38916016 136.15625 C-125.1191779 117.74575404 -124.81695148 99.4660453 -124.8125 80.9375 C-124.81150299 79.833992 -124.81050598 78.73048401 -124.80947876 77.59353638 C-124.81089611 63.72498979 -125.07701737 49.94314182 -126.24291992 36.11987305 C-127.33340751 23.05596079 -127.33340751 23.05596079 -124.5078125 18.69921875 C-121.80621831 16.68504087 -119.06691654 15.40820892 -116 14 C-114.4602421 13.15652213 -112.92687641 12.30131931 -111.3984375 11.4375 C-81.6148458 -5.16763766 -30.41853304 -25.92634461 0 0 Z " fill="#336791" transform="translate(444,310)"/>
<path d="M0 0 C0.85767042 16.54986262 -2.35619266 33.11487642 -5.43994141 49.31054688 C-10.62918031 77.65130121 -9.44055106 108.50982283 -6 137 C-5.74255265 139.29141621 -5.48749128 141.58310132 -5.234375 143.875 C-4.83849985 147.44759111 -4.44224202 151.02012663 -4.04248047 154.59228516 C-2.6356556 167.17383762 -1.91665837 179.52417109 -1.875 192.1875 C-1.87024658 193.37657959 -1.86549316 194.56565918 -1.8605957 195.79077148 C-1.89666349 214.95345053 -5.9412412 231.30604461 -13 249 C-13.99 249 -14.98 249 -16 249 C-16.38631592 248.18136475 -16.77263184 247.36272949 -17.1706543 246.51928711 C-24.09923505 231.88773676 -31.10197852 217.40334628 -39.21240234 203.38037109 C-45.52111292 192.45212514 -51.26969578 181.23967626 -57 170 C-57.39558105 169.22543457 -57.79116211 168.45086914 -58.19873047 167.65283203 C-60.17539988 163.77197407 -62.12350675 159.87841516 -64.03759766 155.96630859 C-64.70862807 154.59530938 -65.38304723 153.22596581 -66.06005859 151.85791016 C-77.93859875 127.7919564 -87.94566212 102.19489905 -94 76 C-94.22558594 75.04480469 -94.45117188 74.08960938 -94.68359375 73.10546875 C-98.19342769 55.0237725 -98.81120504 33.86381125 -88.375 18.125 C-78.49484774 5.60650137 -63.11718747 0.10203178 -47.62988281 -1.78173828 C-32.76149478 -3.01570959 -14.4752725 -4.13146147 0 0 Z " fill="#346891" transform="translate(792,296)"/>
<path d="M0 0 C5.99087659 2.59781374 10.25086034 6.73123864 14 12 C14.41507813 12.56074219 14.83015625 13.12148438 15.2578125 13.69921875 C19.25408838 20.14076834 19.01715923 27.69853139 18 35 C16.57660754 38.59876583 14.5784215 41.14097 12 44 C11.30003906 44.81984375 10.60007812 45.6396875 9.87890625 46.484375 C7.64005508 49.04527929 5.33365702 51.52551885 3 54 C2.39671875 54.67933594 1.7934375 55.35867188 1.171875 56.05859375 C-8.06078387 66.03387953 -20.49904233 72.99646013 -33 78 C-33.9384375 78.37769531 -34.876875 78.75539063 -35.84375 79.14453125 C-62.17168035 88.8005167 -96.947702 87.98363213 -122.51171875 76.41015625 C-125.37648694 74.99607207 -128.20036436 73.53826134 -131 72 C-127.39890147 68.71245359 -123.2996279 67.76760159 -118.6875 66.625 C-117.85863281 66.41149902 -117.02976562 66.19799805 -116.17578125 65.97802734 C-110.61501354 64.57236592 -105.02725552 63.36893271 -99.40820312 62.22216797 C-87.79485112 59.8374921 -76.93684154 56.57950679 -66 52 C-65.00613281 51.59007812 -64.01226562 51.18015625 -62.98828125 50.7578125 C-50.72267889 45.17378631 -42.20873921 35.31660658 -34 25 C-33.28972656 24.10796875 -32.57945312 23.2159375 -31.84765625 22.296875 C-31.19667969 21.47703125 -30.54570312 20.6571875 -29.875 19.8125 C-25.79056412 14.67563279 -21.50328233 9.77347927 -17 5 C-16.41476562 4.34128906 -15.82953125 3.68257812 -15.2265625 3.00390625 C-10.51043651 -1.78971477 -6.32929398 -1.87792239 0 0 Z " fill="#356892" transform="translate(463,633)"/>
<path d="M0 0 C0.78246094 0.50917969 1.56492187 1.01835938 2.37109375 1.54296875 C33.37333356 20.48878197 80.12951898 14.66256507 113.77172852 6.91308594 C117.50967621 6.06669709 120.14155217 5.60355398 123.80859375 6.73046875 C99.85758106 26.98397487 73.45004471 38.23662271 42.80859375 43.73046875 C41.92494141 43.89708008 41.04128906 44.06369141 40.13085938 44.23535156 C27.8279077 46.50514746 15.66063025 47.01254515 3.18359375 47.04296875 C2.45843567 47.04664459 1.73327759 47.05032043 0.98614502 47.05410767 C-11.38588355 47.08692146 -23.01789215 46.54295336 -34.19140625 40.73046875 C-34.61213569 29.32402627 -35.04788266 16.93376969 -27.19140625 7.73046875 C-22.88420658 3.71421061 -19.16262972 1.59453421 -13.56640625 -0.14453125 C-12.9115625 -0.36882813 -12.25671875 -0.593125 -11.58203125 -0.82421875 C-6.7150761 -2.4005605 -4.35656281 -2.52385546 0 0 Z " fill="#356892" transform="translate(803.19140625,630.26953125)"/>
<path d="M0 0 C3.14167014 2.50528055 4.35146253 4.08472254 4.9609375 8.08984375 C4.10463835 14.20626626 0.06619712 18.15278473 -4.57421875 21.890625 C-11.30257643 26.57422511 -18.44583134 27.10830155 -26.4765625 26.21484375 C-35.92790856 24.14520593 -42.17463953 18.0176408 -47.5390625 10.21484375 C-48.82444335 6.10162503 -49.70548903 2.43830645 -48.4765625 -1.78515625 C-36.75680693 -13.75968911 -12.14233179 -8.4279054 0 0 Z " fill="#FCFDFD" transform="translate(440.4765625,322.78515625)"/>
<path d="M0 0 C0.79140381 0.00016113 1.58280762 0.00032227 2.39819336 0.00048828 C8.18089139 0.11360602 13.35577512 0.81432529 18.125 4.375 C19.62090709 7.36681417 19.55243011 9.0166206 19.125 12.375 C15.55193632 19.7452679 10.13048343 24.94784444 2.796875 28.50390625 C-3.46568574 30.54564754 -10.72574006 30.6026776 -16.87109375 28.20703125 C-22.74204656 24.81356818 -26.91912464 21.52376591 -28.9375 14.875 C-28.875 11.375 -28.875 11.375 -26.9375 8.6875 C-18.78502445 2.53154908 -10.17470126 -0.01932109 0 0 Z " fill="#FCFCFD" transform="translate(745.875,307.625)"/>
</svg>
